{"title":"The.Grey.2012.720p.US.BRRip.x264.Feel-Free","uid":7242062,"size":2921544230,"categoryP":"video","categoryS":"hd___movies","magnet":"?xt=urn:btih:6a302286e281f453c195d9983e89bd5007146dcd&amp;dn=The.Grey.2012.720p.US.BRRip.x264.Feel-Free&amp;tr=udp%3A%2F%2Ftracker.openbittorrent.com%3A80&amp;tr=udp%3A%2F%2Fopen.demonii.com%3A1337&amp;tr=udp%3A%2F%2Ftracker.coppersurfer.tk%3A6969&amp;tr=udp%3A%2F%2Fexodus.desync.com%3A6969","seeders":0,"leechers":1,"uploader":null,"files":9,"time":1336158848,"description":"Genre:Action | Adventure | Drama\n Language:English\n IMDb:http://www.imdb.com/title/tt1601913/\n Source:BluRay.x264.DTS-HDChina Thanks!\n Encoder:Tony\n \nFormat : MPEG-4\n Format profile : Base Media\n Codec ID : isom\n File size : 2.72 GiB\n Duration : 1h 57mn\n Overall bit rate mode : Variable\n Overall bit rate : 3 309 Kbps\n \nVideo\n ID : 1\n Format : AVC\n Format/Info : Advanced Video Codec\n Format profile : &lt;a class=&quot;__cf_email__&quot; href=&quot;/cdn-cgi/l/email-protection&quot; data-cfemail=&quot;662e0f010e262a534857&quot;&gt;[email&amp;#160;protected]&lt;/a&gt;&lt;script cf-hash='f9e31' type=&quot;text/javascript&quot;&gt;\n/* &lt;![CDATA[ */!function(){try{var t=&quot;currentScript&quot;in document?document.currentScript:function(){for(var t=document.getElementsByTagName(&quot;script&quot;),e=t.length;e--;)if(t[e].getAttribute(&quot;cf-hash&quot;))return t[e]}();if(t&amp;&amp;t.previousSibling){var e,r,n,i,c=t.previousSibling,a=c.getAttribute(&quot;data-cfemail&quot;);if(a){for(e=&quot;&quot;,r=parseInt(a.substr(0,2),16),n=2;a.length-n;n+=2)i=parseInt(a.substr(n,2),16)^r,e+=String.fromCharCode(i);e=document.createTextNode(e),c.parentNode.replaceChild(e,c)}}}catch(u){}}();/* ]]&gt; */&lt;/script&gt;\n Format settings, CABAC : Yes\n Format settings, ReFrames : 5 frames\n Codec ID : avc1\n Codec ID/Info : Advanced Video Coding\n Duration : 1h 57mn\n Bit rate : 3 000 Kbps\n Maximum bit rate : 20.5 Mbps\n Width : 1 280 pixels\n Height : 528 pixels\n Display aspect ratio : 2.40:1\n Frame rate mode : Constant\n Frame rate : 23.976 fps\n Color space : YUV\n Chroma subsampling : 4:2:0\n Bit depth : 8 bits\n Scan type : Progressive\n Bits/(Pixel*Frame) : 0.185\n Stream size : 2.36 GiB (87%)\n Writing library : x264\n \nAudio\n ID : 2\n Format : AAC\n Format/Info : Advanced Audio Codec\n Format profile : LC\n Codec ID : 40\n Duration : 1h 57mn\n Bit rate mode : Variable\n Bit rate : 431 Kbps\n Maximum bit rate : 577 Kbps\n Channel(s) : 6 channels\n Channel positions : Front: L C R, Side: L R, LFE\n Sampling rate : 48.0 KHz\n Compression mode : Lossy\n Stream size : 363 MiB (13%)\n \nPlot:\n In Alaska, an oil drilling team struggle to survive after a plane crash strands them in the wild. Hunting the humans are a pack of wolves who see them as intruders\n ","torrent":{"xt":"urn:btih:6a302286e281f453c195d9983e89bd5007146dcd","amp;dn":"The.Grey.2012.720p.US.BRRip.x264.Feel-Free","amp;tr":["udp%3A%2F%2Ftracker.openbittorrent.com%3A80","udp%3A%2F%2Fopen.demonii.com%3A1337","udp%3A%2F%2Ftracker.coppersurfer.tk%3A6969","udp%3A%2F%2Fexodus.desync.com%3A6969"],"infoHash":"6a302286e281f453c195d9983e89bd5007146dcd","infoHashBuffer":{"type":"Buffer","data":[106,48,34,134,226,129,244,83,193,149,217,152,62,137,189,80,7,20,109,205]},"announce":[],"urlList":[]}}